Coordinates
version=1
nRows=7
nColumns=42
inDegrees=yes

Units are S.I. units (second, meters, Newtons, ...)
If the header above contains a line with 'inDegrees', this indicates whether rotational values are in degrees (yes) or radians (no).

endheader
time	pelvis_tilt	pelvis_list	pelvis_rotation	pelvis_tx	pelvis_ty	pelvis_tz	hip_flexion_r	hip_adduction_r	hip_rotation_r	knee_angle_r	knee_adduction_r	knee_angle_r_beta	ankle_angle_r	subtalar_angle_r	mtp_angle_r	hip_flexion_l	hip_adduction_l	hip_rotation_l	knee_angle_l	knee_adduction_l	knee_angle_l_beta	ankle_angle_l	subtalar_angle_l	mtp_angle_l	lumbar_extension	lumbar_bending	lumbar_rotation	arm_flex_r	arm_add_r	arm_rot_r	elbow_flex_r	pro_sup_r	wrist_flex_r	wrist_dev_r	arm_flex_l	arm_add_l	arm_rot_l	elbow_flex_l	pro_sup_l	wrist_flex_l	wrist_dev_l
      0.77000000	      8.30336007	     -0.91900123	    -10.43806437	     -0.83592657	      0.94774123	      0.28962532	    -25.62071628	      2.00140862	     -5.26784260	      2.51217725	     -0.72158923	      0.04384576	     27.48023316	     21.95160119	     -7.67569231	     15.28724513	     -3.64192238	    -31.47025624	      1.52163643	      1.04938007	      0.02655757	     12.06591952	     27.50701675	     -7.67569231	    -22.60302556	     -0.96291095	      7.45399147	      7.28212466	    -18.36953998	     12.85786668	     44.33305527	     90.00000001	      0.00000000	      0.00000000	    -15.31526248	     -5.21036853	     -2.68463242	     34.28956462	     90.00000001	      0.00000000	      0.00000000
      0.78000000	      8.26536994	     -1.05765492	    -10.72711855	     -0.82134230	      0.94452001	      0.29010370	    -26.44063036	      1.90822119	     -4.83995698	      2.82222998	     -0.79266118	      0.04925721	     27.80132034	     21.66539212	     -7.66668943	     15.86609290	     -3.98545770	    -32.66668364	      1.32217189	      1.41614935	      0.02307625	     12.15460757	     29.50639069	     -7.66668943	    -22.51217628	     -0.92747677	      7.75677718	      7.42217773	    -18.48648160	     12.79790967	     44.24175109	     90.00000001	      0.00000000	      0.00000000	    -15.73077382	     -5.07261757	     -2.91747707	     34.49540272	     90.00000001	      0.00000000	      0.00000000
      0.79000000	      8.11401275	     -1.13097222	    -10.87083217	     -0.80656084	      0.94130446	      0.29028361	    -27.06726076	      1.79836065	     -4.80772060	      3.26395048	     -0.87427664	      0.05696668	     27.86720673	     21.60403043	     -7.66581174	     16.51575066	     -4.09578641	    -32.49768791	      1.32634051	      1.48135555	      0.02314901	     12.10319562	     29.44841479	     -7.66581174	    -22.27143685	     -0.87681384	      7.91543778	      7.43609193	    -18.57527459	     12.75738750	     44.18315981	     90.00000001	      0.00000000	      0.00000000	    -16.04024797	     -4.99445697	     -2.94832301	     34.50918049	     90.00000001	      0.00000000	      0.00000000
      0.80000000	      8.27216038	     -0.91437276	    -11.43524816	     -0.79153606	      0.93879204	      0.29068439	    -27.87485925	      1.03298586	     -4.51372294	      3.91460618	     -0.78077339	      0.06832277	     28.29672641	     21.58415634	     -7.66119554	     16.62787594	     -3.83501646	    -32.43544433	      1.34535689	      1.34877254	      0.02348091	     11.87958276	     29.68375722	     -7.66119554	    -22.30775334	     -1.32233234	      8.29493922	      7.51507901	    -18.61844290	     12.69116387	     43.92837238	     90.00000001	      0.00000000	      0.00000000	    -16.36468250	     -4.86851251	     -3.40006167	     34.73652060	     90.00000001	      0.00000000	      0.00000000
      0.81000000	      8.10465602	     -0.87923359	    -11.74740044	     -0.77637057	      0.93610691	      0.29100983	    -28.32693974	      0.68890181	     -4.41055740	      4.65163710	     -0.85844310	      0.08118638	     28.22120402	     21.55049100	     -7.66006310	     17.18825050	     -3.83259677	    -31.82494763	      2.00629017	      1.10137473	      0.03501637	     11.77099147	     29.47175080	     -7.66006310	    -22.00849753	     -1.44894391	      8.57303849	      7.37232547	    -18.66055011	     12.66393232	     43.78198456	     90.00000001	      0.00000000	      0.00000000	    -16.58623824	     -4.85095741	     -3.46142055	     34.75260687	     90.00000001	      0.00000000	      0.00000000
      0.82000000	      8.18130943	     -0.54527156	    -12.21974306	     -0.76098109	      0.93404012	      0.29087060	    -28.87762196	     -0.25611891	     -4.40509247	      5.60055941	     -0.68679991	      0.09774820	     28.15862871	     21.63700612	     -7.65795823	     17.51791592	     -3.34694491	    -31.23986536	      2.99188037	      0.48094005	      0.05221816	     11.63382365	     28.65254110	     -7.65795823	    -21.92625994	     -1.92689889	      8.79552846	      7.34254285	    -18.65647315	     12.47798656	     43.42685667	     90.00000001	      0.00000000	      0.00000000	    -16.75391868	     -4.76167889	     -3.64963986	     34.74893126	     90.00000001	      0.00000000	      0.00000000
      0.83000000	      8.42604925	      0.38157840	    -12.74154771	     -0.74486322	      0.93231469	      0.29050848	    -29.07094240	     -2.02396065	     -6.39819641	      7.40306453	     -0.49438570	      0.12920785	     28.68497029	     24.12364342	     -7.64596495	     17.41589187	     -2.05049643	    -29.83170482	      3.61776038	     -0.02682366	      0.06314183	     10.81388526	     26.09358792	     -7.64596495	    -21.81530989	     -3.08574413	      8.87485413	      7.07844405	    -18.43869367	     12.00335728	     43.09244235	     90.00000001	      0.00000000	      0.00000000	    -16.85933794	     -4.71019129	     -4.33535977	     34.69771240	     90.00000001	      0.00000000	      0.00000000
